<svg width="1631" height="260" xmlns="http://www.w3.org/2000/svg" xmlns:xlink="http://www.w3.org/1999/xlink" overflow="hidden"><defs><clipPath id="clip0"><rect x="381" y="718" width="1631" height="260"/></clipPath><linearGradient x1="381" y1="848" x2="641" y2="848" gradientUnits="userSpaceOnUse" spreadMethod="reflect" id="fill1"><stop offset="0" stop-color="#128091"/><stop offset="0.0227273" stop-color="#128192"/><stop offset="0.0454545" stop-color="#128394"/><stop offset="0.0681818" stop-color="#128496"/><stop offset="0.0909091" stop-color="#128698"/><stop offset="0.113636" stop-color="#13889A"/><stop offset="0.136364" stop-color="#13899B"/><stop offset="0.159091" stop-color="#138B9D"/><stop offset="0.181818" stop-color="#138C9F"/><stop offset="0.204545" stop-color="#148DA0"/><stop offset="0.227273" stop-color="#148FA2"/><stop offset="0.25" stop-color="#1490A3"/><stop offset="0.272727" stop-color="#1491A5"/><stop offset="0.295455" stop-color="#1493A6"/><stop offset="0.318182" stop-color="#1594A8"/><stop offset="0.340909" stop-color="#1595A9"/><stop offset="0.363636" stop-color="#1596AA"/><stop offset="0.386364" stop-color="#1597AB"/><stop offset="0.409091" stop-color="#1599AD"/><stop offset="0.431818" stop-color="#159AAE"/><stop offset="0.454545" stop-color="#169BAF"/><stop offset="0.477273" stop-color="#169CB0"/><stop offset="0.5" stop-color="#169DB1"/><stop offset="0.522727" stop-color="#169EB2"/><stop offset="0.545455" stop-color="#169EB3"/><stop offset="0.568182" stop-color="#169FB4"/><stop offset="0.590909" stop-color="#16A0B5"/><stop offset="0.613636" stop-color="#16A1B6"/><stop offset="0.636364" stop-color="#17A1B7"/><stop offset="0.659091" stop-color="#17A2B8"/><stop offset="0.681818" stop-color="#17A3B8"/><stop offset="0.704545" stop-color="#17A3B9"/><stop offset="0.727273" stop-color="#17A4BA"/><stop offset="0.75" stop-color="#17A5BA"/><stop offset="0.772727" stop-color="#17A5BB"/><stop offset="0.795455" stop-color="#17A5BB"/><stop offset="0.818182" stop-color="#17A6BC"/><stop offset="0.840909" stop-color="#17A6BC"/><stop offset="0.863636" stop-color="#17A7BC"/><stop offset="0.886364" stop-color="#17A7BD"/><stop offset="0.909091" stop-color="#17A7BD"/><stop offset="0.931818" stop-color="#17A7BD"/><stop offset="0.954545" stop-color="#17A7BD"/><stop offset="0.977273" stop-color="#17A7BD"/><stop offset="1" stop-color="#18A8BE"/></linearGradient><linearGradient x1="433" y1="848" x2="589" y2="848" gradientUnits="userSpaceOnUse" spreadMethod="reflect" id="fill2"><stop offset="0" stop-color="#128091"/><stop offset="0.0227273" stop-color="#128192"/><stop offset="0.0454545" stop-color="#128394"/><stop offset="0.0681818" stop-color="#128496"/><stop offset="0.0909091" stop-color="#128698"/><stop offset="0.113636" stop-color="#13889A"/><stop offset="0.136364" stop-color="#13899B"/><stop offset="0.159091" stop-color="#138B9D"/><stop offset="0.181818" stop-color="#138C9F"/><stop offset="0.204545" stop-color="#148DA0"/><stop offset="0.227273" stop-color="#148FA2"/><stop offset="0.25" stop-color="#1490A3"/><stop offset="0.272727" stop-color="#1491A5"/><stop offset="0.295455" stop-color="#1493A6"/><stop offset="0.318182" stop-color="#1594A8"/><stop offset="0.340909" stop-color="#1595A9"/><stop offset="0.363636" stop-color="#1596AA"/><stop offset="0.386364" stop-color="#1597AB"/><stop offset="0.409091" stop-color="#1599AD"/><stop offset="0.431818" stop-color="#159AAE"/><stop offset="0.454545" stop-color="#169BAF"/><stop offset="0.477273" stop-color="#169CB0"/><stop offset="0.5" stop-color="#169DB1"/><stop offset="0.522727" stop-color="#169EB2"/><stop offset="0.545455" stop-color="#169EB3"/><stop offset="0.568182" stop-color="#169FB4"/><stop offset="0.590909" stop-color="#16A0B5"/><stop offset="0.613636" stop-color="#16A1B6"/><stop offset="0.636364" stop-color="#17A1B7"/><stop offset="0.659091" stop-color="#17A2B8"/><stop offset="0.681818" stop-color="#17A3B8"/><stop offset="0.704545" stop-color="#17A3B9"/><stop offset="0.727273" stop-color="#17A4BA"/><stop offset="0.75" stop-color="#17A5BA"/><stop offset="0.772727" stop-color="#17A5BB"/><stop offset="0.795455" stop-color="#17A5BB"/><stop offset="0.818182" stop-color="#17A6BC"/><stop offset="0.840909" stop-color="#17A6BC"/><stop offset="0.863636" stop-color="#17A7BC"/><stop offset="0.886364" stop-color="#17A7BD"/><stop offset="0.909091" stop-color="#17A7BD"/><stop offset="0.931818" stop-color="#17A7BD"/><stop offset="0.954545" stop-color="#17A7BD"/><stop offset="0.977273" stop-color="#17A7BD"/><stop offset="1" stop-color="#18A8BE"/></linearGradient></defs><g clip-path="url(#clip0)" transform="translate(-381 -718)"><path d="M511 757C460.742 757 420 797.742 420 848 420 898.258 460.742 939 511 939 561.258 939 602 898.258 602 848 602 797.742 561.258 757 511 757ZM511 718C582.797 718 641 776.203 641 848 641 919.797 582.797 978 511 978 439.203 978 381 919.797 381 848 381 776.203 439.203 718 511 718Z" fill="url(#fill1)" fill-rule="evenodd"/><path d="M511 783C475.102 783 446 812.102 446 848 446 883.898 475.102 913 511 913 546.898 913 576 883.898 576 848 576 812.102 546.898 783 511 783ZM511 770C554.078 770 589 804.922 589 848 589 891.078 554.078 926 511 926 467.922 926 433 891.078 433 848 433 804.922 467.922 770 511 770Z" fill="url(#fill2)" fill-rule="evenodd"/><path d="M697 780 806 780 806 796.285 760.505 796.285 760.505 918 742.307 918 742.307 796.285 697 796.285 697 780Z" fill="#113040" fill-rule="evenodd"/><path d="M1269 780 1362 780 1362 796.285 1287.24 796.285 1287.24 839.022 1351.94 839.022 1351.94 855.307 1287.24 855.307 1287.24 918 1269 918 1269 780Z" fill="#113040" fill-rule="evenodd"/><path d="M1379 780 1396 780 1396 918 1379 918 1379 780Z" fill="#113040" fill-rule="evenodd"/><path d="M1693 780 1734.61 780 1759.59 874.134 1784.3 780 1826 780 1826 918 1800.17 918 1800.17 809.37 1772.84 918 1746.07 918 1718.83 809.37 1718.83 918 1693 918 1693 780Z" fill="#113040" fill-rule="evenodd"/><path d="M1851 780 1909.61 780C1924.35 780 1935.06 781.239 1941.74 783.718 1948.42 786.197 1953.77 790.606 1957.78 796.944 1961.8 803.282 1963.8 810.531 1963.8 818.689 1963.8 829.044 1960.76 837.594 1954.68 844.341 1948.59 851.087 1939.5 855.338 1927.39 857.095 1933.42 860.61 1938.39 864.469 1942.31 868.674 1946.23 872.879 1951.51 880.346 1958.16 891.078L1975 918 1941.69 918 1921.56 887.971C1914.41 877.24 1909.52 870.478 1906.88 867.686 1904.25 864.893 1901.46 862.979 1898.51 861.944 1895.56 860.908 1890.89 860.39 1884.49 860.39L1878.85 860.39 1878.85 918 1851 918 1851 780ZM1878.85 803.345 1878.85 838.363 1899.45 838.363C1912.81 838.363 1921.15 837.798 1924.48 836.668 1927.8 835.539 1930.41 833.593 1932.29 830.832 1934.17 828.071 1935.11 824.619 1935.11 820.477 1935.11 815.833 1933.87 812.084 1931.39 809.228 1928.92 806.373 1925.42 804.569 1920.9 803.816 1918.64 803.502 1911.87 803.345 1900.58 803.345L1878.85 803.345Z" fill="#113040" fill-rule="evenodd"/><path d="M1985 780 2012 780 2012 918 1985 918 1985 780Z" fill="#113040" fill-rule="evenodd"/><path d="M842.611 816C855.955 816 866.856 820.529 875.313 829.586 883.771 838.643 888 851.385 888 867.813 888 868.812 887.969 870.311 887.906 872.31L813.479 872.31C814.106 883.241 817.207 891.611 822.782 897.42 828.358 903.229 835.312 906.133 843.645 906.133 849.847 906.133 855.14 904.509 859.526 901.261 863.911 898.013 867.388 892.829 869.957 885.708L887.436 887.863C884.679 898.044 879.573 905.946 872.118 911.567 864.663 917.189 855.14 920 843.55 920 828.953 920 817.379 915.518 808.827 906.555 800.276 897.591 796 885.021 796 868.843 796 852.103 800.323 839.111 808.968 829.867 817.614 820.622 828.828 816 842.611 816ZM842.799 829.867C835.03 829.867 828.499 832.459 823.205 837.643 817.911 842.828 814.983 849.761 814.419 858.443L870.145 858.443C869.393 850.073 867.263 843.796 863.755 839.611 858.367 833.115 851.381 829.867 842.799 829.867Z" fill="#113040" fill-rule="evenodd"/><path d="M951.929 816C957.936 816 963.458 817.08 968.496 819.241 973.532 821.401 977.302 824.234 979.805 827.74 982.308 831.247 984.06 835.411 985.061 840.232 985.687 843.363 986 848.842 986 856.669L986 918 969.106 918 969.106 857.326C969.106 850.438 968.448 845.288 967.134 841.876 965.82 838.463 963.49 835.74 960.142 833.705 956.794 831.67 952.868 830.652 948.363 830.652 941.167 830.652 934.957 832.938 929.732 837.508 924.507 842.079 921.895 850.751 921.895 863.525L921.895 918 905 918 905 818.254 920.205 818.254 920.205 832.437C927.526 821.479 938.101 816 951.929 816Z" fill="#113040" fill-rule="evenodd"/><path d="M1040.62 816C1048.46 816 1055.34 817.125 1061.27 819.373 1067.2 821.622 1071.58 824.667 1074.4 828.508 1077.22 832.35 1079.17 837.487 1080.24 843.921L1063.67 846.169C1062.92 841.047 1060.74 837.05 1057.13 834.177 1053.53 831.303 1048.43 829.867 1041.84 829.867 1034.06 829.867 1028.51 831.147 1025.18 833.708 1021.86 836.269 1020.2 839.267 1020.2 842.703 1020.2 844.889 1020.89 846.857 1022.27 848.606 1023.65 850.417 1025.81 851.916 1028.76 853.103 1030.45 853.728 1035.44 855.164 1043.72 857.413 1055.71 860.598 1064.07 863.206 1068.8 865.236 1073.54 867.266 1077.26 870.218 1079.95 874.09 1082.65 877.963 1084 882.772 1084 888.519 1084 894.141 1082.35 899.434 1079.06 904.4 1075.77 909.366 1071.01 913.207 1064.8 915.924 1058.59 918.641 1051.57 920 1043.72 920 1030.74 920 1020.84 917.314 1014.03 911.942 1007.23 906.57 1002.88 898.607 1001 888.05L1017.75 885.427C1018.69 892.11 1021.31 897.232 1025.61 900.793 1029.91 904.353 1035.91 906.133 1043.63 906.133 1051.41 906.133 1057.18 904.556 1060.94 901.402 1064.71 898.247 1066.59 894.547 1066.59 890.299 1066.59 886.489 1064.93 883.491 1061.6 881.304 1059.28 879.805 1053.51 877.9 1044.29 875.589 1031.87 872.466 1023.26 869.765 1018.46 867.485 1013.66 865.205 1010.02 862.05 1007.54 858.022 1005.06 853.993 1003.82 849.542 1003.82 844.67 1003.82 840.236 1004.84 836.128 1006.88 832.35 1008.92 828.571 1011.7 825.432 1015.21 822.934 1017.84 820.997 1021.44 819.357 1025.98 818.015 1030.53 816.672 1035.41 816 1040.62 816Z" fill="#113040" fill-rule="evenodd"/><path d="M1141.05 816C1154.84 816 1166.11 820.482 1174.87 829.445 1183.62 838.409 1188 850.792 1188 866.595 1188 879.4 1186.06 889.471 1182.19 896.811 1178.32 904.15 1172.68 909.85 1165.28 913.91 1157.88 917.97 1149.8 920 1141.05 920 1127 920 1115.65 915.534 1106.99 906.602 1098.33 897.669 1094 884.802 1094 868 1094 849.574 1099.16 835.926 1109.49 827.056 1118.12 819.686 1128.64 816 1141.05 816ZM1141.05 829.96C1132.54 829.96 1125.49 833.115 1119.89 839.424 1114.28 845.732 1111.48 855.258 1111.48 868 1111.48 880.742 1114.28 890.283 1119.89 896.623 1125.49 902.963 1132.54 906.133 1141.05 906.133 1149.49 906.133 1156.51 902.948 1162.11 896.577 1167.72 890.205 1170.52 880.492 1170.52 867.438 1170.52 855.133 1167.7 845.81 1162.07 839.47 1156.43 833.13 1149.42 829.96 1141.05 829.96Z" fill="#113040" fill-rule="evenodd"/><path d="M1240.69 816C1246.36 816 1252.14 817.816 1258 821.448L1252.2 837.133C1248.08 834.691 1243.96 833.47 1239.84 833.47 1236.16 833.47 1232.86 834.581 1229.92 836.804 1226.99 839.027 1224.9 842.111 1223.65 846.055 1221.78 852.067 1220.85 858.641 1220.85 865.779L1220.85 918 1204 918 1204 818.254 1219.16 818.254 1219.16 833.376C1223.03 826.3 1226.6 821.635 1229.88 819.381 1233.15 817.127 1236.76 816 1240.69 816Z" fill="#113040" fill-rule="evenodd"/><path d="M1454.05 816C1467.84 816 1479.11 820.482 1487.87 829.445 1496.62 838.409 1501 850.792 1501 866.595 1501 879.4 1499.06 889.471 1495.19 896.811 1491.32 904.15 1485.68 909.85 1478.28 913.91 1470.88 917.97 1462.8 920 1454.05 920 1440 920 1428.65 915.534 1419.99 906.602 1411.33 897.669 1407 884.802 1407 868 1407 849.574 1412.16 835.926 1422.49 827.056 1431.12 819.686 1441.64 816 1454.05 816ZM1454.05 829.96C1445.54 829.96 1438.49 833.115 1432.89 839.424 1427.28 845.732 1424.48 855.258 1424.48 868 1424.48 880.742 1427.28 890.283 1432.89 896.623 1438.49 902.963 1445.54 906.133 1454.05 906.133 1462.49 906.133 1469.51 902.948 1475.11 896.577 1480.72 890.205 1483.52 880.492 1483.52 867.438 1483.52 855.133 1480.7 845.81 1475.07 839.47 1469.43 833.13 1462.42 829.96 1454.05 829.96Z" fill="#113040" fill-rule="evenodd"/><path d="M1505 818 1522.36 818 1538.14 875.721 1544.02 897.19C1544.27 896.123 1545.98 889.249 1549.15 876.569L1564.93 818 1582.19 818 1597.04 876.004 1601.98 895.119 1607.68 875.816 1624.67 818 1641 818 1610.01 918 1592.56 918 1576.78 858.113 1572.95 841.07 1552.88 918 1535.34 918 1505 818Z" fill="#113040" fill-rule="evenodd"/></g></svg>