<svg width="1632" height="260" xmlns="http://www.w3.org/2000/svg" xmlns:xlink="http://www.w3.org/1999/xlink" overflow="hidden"><defs><clipPath id="clip0"><rect x="372" y="1315" width="1632" height="260"/></clipPath><linearGradient x1="372" y1="1445" x2="632" y2="1445" gradientUnits="userSpaceOnUse" spreadMethod="reflect" id="fill1"><stop offset="0" stop-color="#128091"/><stop offset="0.0227273" stop-color="#128192"/><stop offset="0.0454545" stop-color="#128394"/><stop offset="0.0681818" stop-color="#128496"/><stop offset="0.0909091" stop-color="#128698"/><stop offset="0.113636" stop-color="#13889A"/><stop offset="0.136364" stop-color="#13899B"/><stop offset="0.159091" stop-color="#138B9D"/><stop offset="0.181818" stop-color="#138C9F"/><stop offset="0.204545" stop-color="#148DA0"/><stop offset="0.227273" stop-color="#148FA2"/><stop offset="0.25" stop-color="#1490A3"/><stop offset="0.272727" stop-color="#1491A5"/><stop offset="0.295455" stop-color="#1493A6"/><stop offset="0.318182" stop-color="#1594A8"/><stop offset="0.340909" stop-color="#1595A9"/><stop offset="0.363636" stop-color="#1596AA"/><stop offset="0.386364" stop-color="#1597AB"/><stop offset="0.409091" stop-color="#1599AD"/><stop offset="0.431818" stop-color="#159AAE"/><stop offset="0.454545" stop-color="#169BAF"/><stop offset="0.477273" stop-color="#169CB0"/><stop offset="0.5" stop-color="#169DB1"/><stop offset="0.522727" stop-color="#169EB2"/><stop offset="0.545455" stop-color="#169EB3"/><stop offset="0.568182" stop-color="#169FB4"/><stop offset="0.590909" stop-color="#16A0B5"/><stop offset="0.613636" stop-color="#16A1B6"/><stop offset="0.636364" stop-color="#17A1B7"/><stop offset="0.659091" stop-color="#17A2B8"/><stop offset="0.681818" stop-color="#17A3B8"/><stop offset="0.704545" stop-color="#17A3B9"/><stop offset="0.727273" stop-color="#17A4BA"/><stop offset="0.75" stop-color="#17A5BA"/><stop offset="0.772727" stop-color="#17A5BB"/><stop offset="0.795455" stop-color="#17A5BB"/><stop offset="0.818182" stop-color="#17A6BC"/><stop offset="0.840909" stop-color="#17A6BC"/><stop offset="0.863636" stop-color="#17A7BC"/><stop offset="0.886364" stop-color="#17A7BD"/><stop offset="0.909091" stop-color="#17A7BD"/><stop offset="0.931818" stop-color="#17A7BD"/><stop offset="0.954545" stop-color="#17A7BD"/><stop offset="0.977273" stop-color="#17A7BD"/><stop offset="1" stop-color="#18A8BE"/></linearGradient><linearGradient x1="424" y1="1445" x2="580" y2="1445" gradientUnits="userSpaceOnUse" spreadMethod="reflect" id="fill2"><stop offset="0" stop-color="#128091"/><stop offset="0.0227273" stop-color="#128192"/><stop offset="0.0454545" stop-color="#128394"/><stop offset="0.0681818" stop-color="#128496"/><stop offset="0.0909091" stop-color="#128698"/><stop offset="0.113636" stop-color="#13889A"/><stop offset="0.136364" stop-color="#13899B"/><stop offset="0.159091" stop-color="#138B9D"/><stop offset="0.181818" stop-color="#138C9F"/><stop offset="0.204545" stop-color="#148DA0"/><stop offset="0.227273" stop-color="#148FA2"/><stop offset="0.25" stop-color="#1490A3"/><stop offset="0.272727" stop-color="#1491A5"/><stop offset="0.295455" stop-color="#1493A6"/><stop offset="0.318182" stop-color="#1594A8"/><stop offset="0.340909" stop-color="#1595A9"/><stop offset="0.363636" stop-color="#1596AA"/><stop offset="0.386364" stop-color="#1597AB"/><stop offset="0.409091" stop-color="#1599AD"/><stop offset="0.431818" stop-color="#159AAE"/><stop offset="0.454545" stop-color="#169BAF"/><stop offset="0.477273" stop-color="#169CB0"/><stop offset="0.5" stop-color="#169DB1"/><stop offset="0.522727" stop-color="#169EB2"/><stop offset="0.545455" stop-color="#169EB3"/><stop offset="0.568182" stop-color="#169FB4"/><stop offset="0.590909" stop-color="#16A0B5"/><stop offset="0.613636" stop-color="#16A1B6"/><stop offset="0.636364" stop-color="#17A1B7"/><stop offset="0.659091" stop-color="#17A2B8"/><stop offset="0.681818" stop-color="#17A3B8"/><stop offset="0.704545" stop-color="#17A3B9"/><stop offset="0.727273" stop-color="#17A4BA"/><stop offset="0.75" stop-color="#17A5BA"/><stop offset="0.772727" stop-color="#17A5BB"/><stop offset="0.795455" stop-color="#17A5BB"/><stop offset="0.818182" stop-color="#17A6BC"/><stop offset="0.840909" stop-color="#17A6BC"/><stop offset="0.863636" stop-color="#17A7BC"/><stop offset="0.886364" stop-color="#17A7BD"/><stop offset="0.909091" stop-color="#17A7BD"/><stop offset="0.931818" stop-color="#17A7BD"/><stop offset="0.954545" stop-color="#17A7BD"/><stop offset="0.977273" stop-color="#17A7BD"/><stop offset="1" stop-color="#18A8BE"/></linearGradient></defs><g clip-path="url(#clip0)" transform="translate(-372 -1315)"><path d="M502 1354C451.742 1354 411 1394.74 411 1445 411 1495.26 451.742 1536 502 1536 552.258 1536 593 1495.26 593 1445 593 1394.74 552.258 1354 502 1354ZM502 1315C573.797 1315 632 1373.2 632 1445 632 1516.8 573.797 1575 502 1575 430.203 1575 372 1516.8 372 1445 372 1373.2 430.203 1315 502 1315Z" fill="url(#fill1)" fill-rule="evenodd"/><path d="M502 1380C466.101 1380 437 1409.1 437 1445 437 1480.9 466.101 1510 502 1510 537.898 1510 567 1480.9 567 1445 567 1409.1 537.898 1380 502 1380ZM502 1367C545.078 1367 580 1401.92 580 1445 580 1488.08 545.078 1523 502 1523 458.921 1523 424 1488.08 424 1445 424 1401.92 458.921 1367 502 1367Z" fill="url(#fill2)" fill-rule="evenodd"/><path d="M688 1378 798 1378 798 1394.29 752.088 1394.29 752.088 1516 733.723 1516 733.723 1394.29 688 1394.29 688 1378Z" fill="#D9D9D9" fill-rule="evenodd"/><path d="M1260 1378 1353 1378 1353 1394.29 1278.24 1394.29 1278.24 1437.02 1342.94 1437.02 1342.94 1453.31 1278.24 1453.31 1278.24 1516 1260 1516 1260 1378Z" fill="#D9D9D9" fill-rule="evenodd"/><path d="M1370 1378 1387 1378 1387 1516 1370 1516 1370 1378Z" fill="#D9D9D9" fill-rule="evenodd"/><path d="M1684 1378 1725.61 1378 1750.59 1472.13 1775.3 1378 1817 1378 1817 1516 1791.17 1516 1791.17 1407.37 1763.84 1516 1737.07 1516 1709.83 1407.37 1709.83 1516 1684 1516 1684 1378Z" fill="#D9D9D9" fill-rule="evenodd"/><path d="M1843 1378 1901.61 1378C1916.35 1378 1927.06 1379.24 1933.74 1381.72 1940.42 1384.2 1945.77 1388.61 1949.78 1394.94 1953.8 1401.28 1955.8 1408.53 1955.8 1416.69 1955.8 1427.04 1952.76 1435.59 1946.68 1442.34 1940.59 1449.09 1931.5 1453.34 1919.39 1455.1 1925.42 1458.61 1930.39 1462.47 1934.31 1466.67 1938.23 1470.88 1943.51 1478.35 1950.16 1489.08L1967 1516 1933.69 1516 1913.56 1485.97C1906.41 1475.24 1901.52 1468.48 1898.88 1465.69 1896.25 1462.89 1893.46 1460.98 1890.51 1459.94 1887.56 1458.91 1882.89 1458.39 1876.49 1458.39L1870.85 1458.39 1870.85 1516 1843 1516 1843 1378ZM1870.85 1401.35 1870.85 1436.36 1891.45 1436.36C1904.81 1436.36 1913.15 1435.8 1916.48 1434.67 1919.8 1433.54 1922.41 1431.59 1924.29 1428.83 1926.17 1426.07 1927.11 1422.62 1927.11 1418.48 1927.11 1413.83 1925.87 1410.08 1923.39 1407.23 1920.92 1404.37 1917.42 1402.57 1912.9 1401.82 1910.64 1401.5 1903.87 1401.35 1892.58 1401.35L1870.85 1401.35Z" fill="#D9D9D9" fill-rule="evenodd"/><path d="M1976 1378 2004 1378 2004 1516 1976 1516 1976 1378Z" fill="#D9D9D9" fill-rule="evenodd"/><path d="M833.611 1413C846.955 1413 857.856 1417.57 866.313 1426.72 874.771 1435.86 879 1448.73 879 1465.31 879 1466.32 878.969 1467.83 878.906 1469.85L804.479 1469.85C805.105 1480.89 808.207 1489.34 813.782 1495.2 819.358 1501.07 826.312 1504 834.644 1504 840.846 1504 846.14 1502.36 850.526 1499.08 854.911 1495.8 858.388 1490.57 860.957 1483.38L878.436 1485.55C875.679 1495.83 870.573 1503.81 863.118 1509.49 855.663 1515.16 846.14 1518 834.55 1518 819.953 1518 808.379 1513.48 799.827 1504.43 791.275 1495.38 787 1482.68 787 1466.35 787 1449.45 791.323 1436.33 799.968 1427 808.614 1417.67 819.828 1413 833.611 1413ZM833.799 1427C826.03 1427 819.499 1429.62 814.205 1434.85 808.911 1440.09 805.983 1447.09 805.419 1455.85L861.145 1455.85C860.393 1447.4 858.263 1441.06 854.755 1436.84 849.367 1430.28 842.381 1427 833.799 1427Z" fill="#D9D9D9" fill-rule="evenodd"/><path d="M942.929 1413C948.936 1413 954.458 1414.09 959.496 1416.27 964.533 1418.45 968.302 1421.31 970.806 1424.86 973.308 1428.4 975.06 1432.6 976.062 1437.47 976.687 1440.63 977 1446.16 977 1454.07L977 1516 960.106 1516 960.106 1454.73C960.106 1447.78 959.448 1442.58 958.134 1439.13 956.821 1435.68 954.49 1432.93 951.142 1430.88 947.794 1428.82 943.868 1427.8 939.363 1427.8 932.167 1427.8 925.957 1430.1 920.732 1434.72 915.507 1439.33 912.895 1448.09 912.895 1460.99L912.895 1516 896 1516 896 1415.28 911.205 1415.28 911.205 1429.6C918.526 1418.53 929.101 1413 942.929 1413Z" fill="#D9D9D9" fill-rule="evenodd"/><path d="M1031.62 1413C1039.46 1413 1046.35 1414.14 1052.27 1416.41 1058.2 1418.68 1062.58 1421.75 1065.4 1425.63 1068.22 1429.51 1070.17 1434.69 1071.24 1441.19L1054.67 1443.46C1053.92 1438.29 1051.74 1434.25 1048.13 1431.35 1044.53 1428.45 1039.43 1427 1032.84 1427 1025.06 1427 1019.51 1428.29 1016.18 1430.88 1012.86 1433.46 1011.2 1436.49 1011.2 1439.96 1011.2 1442.17 1011.89 1444.15 1013.27 1445.92 1014.65 1447.75 1016.81 1449.26 1019.76 1450.46 1021.45 1451.09 1026.44 1452.54 1034.72 1454.81 1046.71 1458.03 1055.07 1460.66 1059.8 1462.71 1064.54 1464.76 1068.26 1467.74 1070.95 1471.65 1073.65 1475.56 1075 1480.41 1075 1486.22 1075 1491.89 1073.35 1497.24 1070.06 1502.25 1066.77 1507.26 1062.01 1511.14 1055.8 1513.88 1049.59 1516.63 1042.57 1518 1034.72 1518 1021.74 1518 1011.84 1515.29 1005.03 1509.86 998.226 1504.44 993.882 1496.4 992 1485.74L1008.75 1483.09C1009.69 1489.84 1012.31 1495.01 1016.61 1498.61 1020.91 1502.2 1026.91 1504 1034.63 1504 1042.41 1504 1048.18 1502.41 1051.94 1499.22 1055.71 1496.04 1057.59 1492.3 1057.59 1488.01 1057.59 1484.17 1055.93 1481.14 1052.6 1478.93 1050.28 1477.42 1044.51 1475.5 1035.29 1473.16 1022.87 1470.01 1014.26 1467.28 1009.46 1464.98 1004.66 1462.68 1001.02 1459.49 998.54 1455.43 996.062 1451.36 994.823 1446.86 994.823 1441.95 994.823 1437.47 995.842 1433.32 997.882 1429.51 999.92 1425.69 1002.7 1422.52 1006.21 1420 1008.84 1418.05 1012.44 1416.39 1016.98 1415.03 1021.53 1413.68 1026.41 1413 1031.62 1413Z" fill="#D9D9D9" fill-rule="evenodd"/><path d="M1132.55 1413C1146.19 1413 1157.35 1417.52 1166.01 1426.57 1174.67 1435.62 1179 1448.13 1179 1464.08 1179 1477.01 1177.08 1487.18 1173.25 1494.59 1169.42 1502 1163.84 1507.75 1156.52 1511.85 1149.2 1515.95 1141.21 1518 1132.55 1518 1118.65 1518 1107.42 1513.49 1098.85 1504.47 1090.28 1495.45 1086 1482.46 1086 1465.5 1086 1446.9 1091.11 1433.12 1101.33 1424.16 1109.87 1416.72 1120.27 1413 1132.55 1413ZM1132.55 1427.09C1124.13 1427.09 1117.16 1430.28 1111.61 1436.65 1106.06 1443.02 1103.29 1452.64 1103.29 1465.5 1103.29 1478.36 1106.06 1488 1111.61 1494.4 1117.16 1500.8 1124.13 1504 1132.55 1504 1140.9 1504 1147.84 1500.78 1153.39 1494.35 1158.94 1487.92 1161.71 1478.11 1161.71 1464.93 1161.71 1452.51 1158.92 1443.1 1153.34 1436.7 1147.77 1430.3 1140.83 1427.09 1132.55 1427.09Z" fill="#D9D9D9" fill-rule="evenodd"/><path d="M1231.69 1413C1237.36 1413 1243.14 1414.83 1249 1418.5L1243.2 1434.34C1239.08 1431.87 1234.96 1430.64 1230.84 1430.64 1227.16 1430.64 1223.86 1431.76 1220.92 1434.01 1217.99 1436.25 1215.9 1439.37 1214.65 1443.35 1212.78 1449.42 1211.85 1456.06 1211.85 1463.27L1211.85 1516 1195 1516 1195 1415.28 1210.16 1415.28 1210.16 1430.55C1214.03 1423.4 1217.6 1418.69 1220.88 1416.41 1224.15 1414.14 1227.76 1413 1231.69 1413Z" fill="#D9D9D9" fill-rule="evenodd"/><path d="M1445.05 1413C1458.84 1413 1470.11 1417.52 1478.87 1426.57 1487.62 1435.62 1492 1448.13 1492 1464.08 1492 1477.01 1490.06 1487.18 1486.19 1494.59 1482.32 1502 1476.68 1507.75 1469.28 1511.85 1461.88 1515.95 1453.8 1518 1445.05 1518 1431 1518 1419.65 1513.49 1410.99 1504.47 1402.33 1495.45 1398 1482.46 1398 1465.5 1398 1446.9 1403.16 1433.12 1413.49 1424.16 1422.12 1416.72 1432.64 1413 1445.05 1413ZM1445.05 1427.09C1436.54 1427.09 1429.49 1430.28 1423.89 1436.65 1418.28 1443.02 1415.48 1452.64 1415.48 1465.5 1415.48 1478.36 1418.28 1488 1423.89 1494.4 1429.49 1500.8 1436.54 1504 1445.05 1504 1453.49 1504 1460.51 1500.78 1466.11 1494.35 1471.72 1487.92 1474.52 1478.11 1474.52 1464.93 1474.52 1452.51 1471.7 1443.1 1466.07 1436.7 1460.43 1430.3 1453.42 1427.09 1445.05 1427.09Z" fill="#D9D9D9" fill-rule="evenodd"/><path d="M1496 1416 1513.49 1416 1529.38 1473.72 1535.3 1495.19C1535.55 1494.12 1537.28 1487.25 1540.48 1474.57L1556.37 1416 1573.76 1416 1588.71 1474 1593.7 1493.12 1599.43 1473.82 1616.55 1416 1633 1416 1601.78 1516 1584.2 1516 1568.31 1456.11 1564.45 1439.07 1544.24 1516 1526.56 1516 1496 1416Z" fill="#D9D9D9" fill-rule="evenodd"/></g></svg>