<?xml version="1.0" encoding="UTF-8" standalone="no"?>
<svg
   xmlns:dc="http://purl.org/dc/elements/1.1/"
   xmlns:cc="http://creativecommons.org/ns#"
   xmlns:rdf="http://www.w3.org/1999/02/22-rdf-syntax-ns#"
   xmlns:svg="http://www.w3.org/2000/svg"
   xmlns="http://www.w3.org/2000/svg"
   id="svg1773"
   version="1.1"
   viewBox="0 0 64 20"
   height="20mm"
   width="64mm">
  <defs
     id="defs1767" />
  <metadata
     id="metadata1770">
    <rdf:RDF>
      <cc:Work
         rdf:about="">
        <dc:format>image/svg+xml</dc:format>
        <dc:type
           rdf:resource="http://purl.org/dc/dcmitype/StillImage" />
        <dc:title></dc:title>
      </cc:Work>
    </rdf:RDF>
  </metadata>
  <g
     transform="translate(-7.8197918,-23.816964)"
     id="layer1">
    <path
       id="path1569"
       style="fill:#1b1817;fill-opacity:1;fill-rule:evenodd;stroke:none;stroke-width:0.03527778"
       d="m 17.666741,28.229344 c -3.17289,0 -5.74605,2.57281 -5.74605,5.74675 0,2.53859 1.64642,4.69265 3.92995,5.45289 0.28751,0.0526 0.39229,-0.12489 0.39229,-0.27729 0,-0.13652 -0.005,-0.49776 -0.008,-0.97719 -1.59844,0.34713 -1.9357,-0.77047 -1.9357,-0.77047 -0.2614,-0.66392 -0.63817,-0.84067 -0.63817,-0.84067 -0.52176,-0.3563 0.0395,-0.34925 0.0395,-0.34925 0.57679,0.0406 0.88018,0.59232 0.88018,0.59232 0.51259,0.87806 1.34514,0.62441 1.67252,0.47731 0.0522,-0.37113 0.20073,-0.62442 0.36477,-0.768 -1.27599,-0.14535 -2.61761,-0.63818 -2.61761,-2.84021 0,-0.6276 0.22402,-1.14018 0.59161,-1.542 -0.0593,-0.14534 -0.25647,-0.72954 0.0564,-1.52082 0,0 0.48225,-0.15452 1.5801,0.58878 0.45825,-0.12735 0.95003,-0.19085 1.43862,-0.19332 0.48825,0.002 0.97967,0.066 1.43863,0.19332 1.09714,-0.7433 1.57868,-0.58878 1.57868,-0.58878 0.31362,0.79128 0.11642,1.37548 0.0575,1.52082 0.3683,0.40182 0.59055,0.9144 0.59055,1.542 0,2.20768 -1.34373,2.69345 -2.6236,2.83562 0.20602,0.17745 0.38982,0.52811 0.38982,1.06433 0,0.768 -0.007,1.38783 -0.007,1.57621 0,0.15382 0.10371,0.33267 0.39511,0.27658 2.28177,-0.76164 3.92677,-2.91394 3.92677,-5.45218 0,-3.17394 -2.57316,-5.74675 -5.7471,-5.74675" />
    <text
       id="text2326"
       y="35.854282"
       x="27.205418"
       style="font-style:normal;font-variant:normal;font-weight:normal;font-stretch:normal;font-size:3.52777767px;line-height:1.25;font-family:Arial;-inkscape-font-specification:Arial;letter-spacing:0px;word-spacing:0px;fill:#000000;fill-opacity:1;stroke:none;stroke-width:0.26458332"
       xml:space="preserve"><tspan
         style="font-size:5.64444447px;stroke-width:0.26458332"
         y="35.854282"
         x="27.205418"
         id="tspan2324">View on GitHub</tspan></text>
    <rect
       ry="2.9344661"
       y="24.066963"
       x="8.0697918"
       height="19.5"
       width="63.499996"
       id="rect2330"
       style="fill:none;fill-opacity:1;stroke:#000000;stroke-width:0.49999994;stroke-miterlimit:4;stroke-dasharray:none;stroke-opacity:1" />
  </g>
</svg>
